<?xml version="1.0" standalone="no"?>
<!DOCTYPE svg PUBLIC "-//W3C//DTD SVG 20010904//EN"
 "http://www.w3.org/TR/2001/REC-SVG-20010904/DTD/svg10.dtd">
<svg version="1.0" xmlns="http://www.w3.org/2000/svg"
 width="148.000000pt" height="148.000000pt" viewBox="0 0 148.000000 148.000000"
 preserveAspectRatio="xMidYMid meet">
<metadata>
Created by potrace 1.11, written by Peter Selinger 2001-2013
</metadata>
<g transform="translate(0.000000,148.000000) scale(0.100000,-0.100000)"
fill="#000000" stroke="none">
<path d="M195 1271 c-150 -69 -151 -266 -2 -342 94 -48 221 7 256 110 17 52
13 92 -15 148 -20 42 -35 57 -77 77 -60 31 -107 32 -162 7z"/>
<path d="M837 1116 c-197 -310 -638 -451 -780 -249 -27 38 -32 41 -41 26 -19
-33 -20 -199 -2 -247 21 -55 68 -103 131 -132 98 -46 266 -28 395 43 219 119
362 324 363 518 1 44 -4 88 -9 98 -9 15 -17 7 -57 -57z"/>
<path d="M840 425 l0 -235 58 0 57 0 0 235 0 235 -57 0 -58 0 0 -235z"/>
<path d="M1070 538 c0 -68 -3 -174 -7 -236 l-6 -112 35 0 36 0 -1 143 c-1 86
2 144 8 147 5 2 68 -61 139 -140 112 -126 133 -145 163 -148 l33 -3 0 108 c0
59 3 165 7 236 l6 127 -35 0 -36 0 5 -157 4 -158 -28 32 c-216 243 -257 283
-290 283 l-33 0 0 -122z"/>
</g>
</svg>
